<mxfile host="app.diagrams.net" modified="2023-12-01T19:32:07.011Z" agent="Mozilla/5.0 (Macintosh; Intel Mac OS X 10_15_7) AppleWebKit/537.36 (KHTML, like Gecko) Chrome/119.0.0.0 Safari/537.36" etag="bwVwgAL7KD5Y0a6JWHap" version="22.1.5" type="github">
  <diagram name="Page-1" id="4ggmHkcCEUmnykvW1HTU">
    <mxGraphModel dx="559" dy="351" grid="1" gridSize="10" guides="1" tooltips="1" connect="1" arrows="1" fold="1" page="1" pageScale="1" pageWidth="827" pageHeight="1169" math="0" shadow="0">
      <root>
        <mxCell id="0" />
        <mxCell id="1" parent="0" />
        <mxCell id="a-e2B2u_BkgGGbcTkGV9-1" value="&lt;h2&gt;AWS Cloud&lt;/h2&gt;" style="points=[[0,0],[0.25,0],[0.5,0],[0.75,0],[1,0],[1,0.25],[1,0.5],[1,0.75],[1,1],[0.75,1],[0.5,1],[0.25,1],[0,1],[0,0.75],[0,0.5],[0,0.25]];outlineConnect=0;gradientColor=none;html=1;whiteSpace=wrap;fontSize=12;fontStyle=0;container=1;pointerEvents=0;collapsible=0;recursiveResize=0;shape=mxgraph.aws4.group;grIcon=mxgraph.aws4.group_aws_cloud_alt;strokeColor=#232F3E;fillColor=none;verticalAlign=top;align=left;spacingLeft=30;fontColor=#232F3E;dashed=0;" vertex="1" parent="1">
          <mxGeometry x="370" y="150" width="840" height="650" as="geometry" />
        </mxCell>
        <mxCell id="a-e2B2u_BkgGGbcTkGV9-2" value="&lt;h2&gt;Region&lt;/h2&gt;" style="sketch=0;outlineConnect=0;gradientColor=none;html=1;whiteSpace=wrap;fontSize=12;fontStyle=0;shape=mxgraph.aws4.group;grIcon=mxgraph.aws4.group_region;strokeColor=#879196;fillColor=none;verticalAlign=top;align=left;spacingLeft=30;fontColor=#879196;dashed=1;" vertex="1" parent="a-e2B2u_BkgGGbcTkGV9-1">
          <mxGeometry x="130" y="50" width="700" height="580" as="geometry" />
        </mxCell>
        <mxCell id="a-e2B2u_BkgGGbcTkGV9-3" value="&lt;h3&gt;VPC: 10.0.0.0/16&lt;/h3&gt;" style="sketch=0;outlineConnect=0;gradientColor=none;html=1;whiteSpace=wrap;fontSize=12;fontStyle=0;shape=mxgraph.aws4.group;grIcon=mxgraph.aws4.group_vpc;strokeColor=#879196;fillColor=none;verticalAlign=top;align=left;spacingLeft=30;fontColor=#879196;dashed=0;" vertex="1" parent="a-e2B2u_BkgGGbcTkGV9-1">
          <mxGeometry x="160" y="90" width="660" height="530" as="geometry" />
        </mxCell>
        <mxCell id="a-e2B2u_BkgGGbcTkGV9-4" value="&lt;font style=&quot;font-size: 18px;&quot;&gt;Availability Zone 1&lt;/font&gt;" style="fillColor=none;strokeColor=#147EBA;dashed=1;verticalAlign=top;fontStyle=0;fontColor=#147EBA;whiteSpace=wrap;html=1;" vertex="1" parent="a-e2B2u_BkgGGbcTkGV9-1">
          <mxGeometry x="230" y="60" width="220" height="550" as="geometry" />
        </mxCell>
        <mxCell id="a-e2B2u_BkgGGbcTkGV9-5" value="&lt;font style=&quot;font-size: 18px;&quot;&gt;Availability Zone 2&lt;/font&gt;" style="fillColor=none;strokeColor=#147EBA;dashed=1;verticalAlign=top;fontStyle=0;fontColor=#147EBA;whiteSpace=wrap;html=1;" vertex="1" parent="a-e2B2u_BkgGGbcTkGV9-1">
          <mxGeometry x="590" y="60" width="220" height="550" as="geometry" />
        </mxCell>
        <mxCell id="a-e2B2u_BkgGGbcTkGV9-6" value="&lt;h3&gt;Public subnet 1: 10.0.0.0/24&lt;/h3&gt;" style="points=[[0,0],[0.25,0],[0.5,0],[0.75,0],[1,0],[1,0.25],[1,0.5],[1,0.75],[1,1],[0.75,1],[0.5,1],[0.25,1],[0,1],[0,0.75],[0,0.5],[0,0.25]];outlineConnect=0;gradientColor=none;html=1;whiteSpace=wrap;fontSize=12;fontStyle=0;container=1;pointerEvents=0;collapsible=0;recursiveResize=0;shape=mxgraph.aws4.group;grIcon=mxgraph.aws4.group_security_group;grStroke=0;strokeColor=#7AA116;fillColor=#F2F6E8;verticalAlign=top;align=left;spacingLeft=30;fontColor=#248814;dashed=0;" vertex="1" parent="a-e2B2u_BkgGGbcTkGV9-1">
          <mxGeometry x="240" y="130" width="200" height="280" as="geometry" />
        </mxCell>
        <mxCell id="a-e2B2u_BkgGGbcTkGV9-7" value="&lt;h3&gt;Public subnet 2: 10.0.1.0/24&lt;/h3&gt;" style="points=[[0,0],[0.25,0],[0.5,0],[0.75,0],[1,0],[1,0.25],[1,0.5],[1,0.75],[1,1],[0.75,1],[0.5,1],[0.25,1],[0,1],[0,0.75],[0,0.5],[0,0.25]];outlineConnect=0;gradientColor=none;html=1;whiteSpace=wrap;fontSize=12;fontStyle=0;container=1;pointerEvents=0;collapsible=0;recursiveResize=0;shape=mxgraph.aws4.group;grIcon=mxgraph.aws4.group_security_group;grStroke=0;strokeColor=#7AA116;fillColor=#F2F6E8;verticalAlign=top;align=left;spacingLeft=30;fontColor=#248814;dashed=0;" vertex="1" parent="a-e2B2u_BkgGGbcTkGV9-1">
          <mxGeometry x="600" y="130" width="200" height="280" as="geometry" />
        </mxCell>
        <mxCell id="a-e2B2u_BkgGGbcTkGV9-8" value="Private subnet 1: 10.0.2.0/23" style="points=[[0,0],[0.25,0],[0.5,0],[0.75,0],[1,0],[1,0.25],[1,0.5],[1,0.75],[1,1],[0.75,1],[0.5,1],[0.25,1],[0,1],[0,0.75],[0,0.5],[0,0.25]];outlineConnect=0;gradientColor=none;html=1;whiteSpace=wrap;fontSize=12;fontStyle=0;container=1;pointerEvents=0;collapsible=0;recursiveResize=0;shape=mxgraph.aws4.group;grIcon=mxgraph.aws4.group_security_group;grStroke=0;strokeColor=#00A4A6;fillColor=#E6F6F7;verticalAlign=top;align=left;spacingLeft=30;fontColor=#147EBA;dashed=0;" vertex="1" parent="a-e2B2u_BkgGGbcTkGV9-1">
          <mxGeometry x="240" y="420" width="200" height="180" as="geometry" />
        </mxCell>
        <mxCell id="a-e2B2u_BkgGGbcTkGV9-9" value="Private subnet 2: 10.0.4.0/23" style="points=[[0,0],[0.25,0],[0.5,0],[0.75,0],[1,0],[1,0.25],[1,0.5],[1,0.75],[1,1],[0.75,1],[0.5,1],[0.25,1],[0,1],[0,0.75],[0,0.5],[0,0.25]];outlineConnect=0;gradientColor=none;html=1;whiteSpace=wrap;fontSize=12;fontStyle=0;container=1;pointerEvents=0;collapsible=0;recursiveResize=0;shape=mxgraph.aws4.group;grIcon=mxgraph.aws4.group_security_group;grStroke=0;strokeColor=#00A4A6;fillColor=#E6F6F7;verticalAlign=top;align=left;spacingLeft=30;fontColor=#147EBA;dashed=0;" vertex="1" parent="a-e2B2u_BkgGGbcTkGV9-1">
          <mxGeometry x="600" y="420" width="200" height="180" as="geometry" />
        </mxCell>
        <mxCell id="a-e2B2u_BkgGGbcTkGV9-10" value="" style="rounded=0;whiteSpace=wrap;html=1;strokeColor=#ffa500;shadow=0;opacity=30;" vertex="1" parent="a-e2B2u_BkgGGbcTkGV9-1">
          <mxGeometry x="360" y="190" width="340" height="60" as="geometry" />
        </mxCell>
        <mxCell id="a-e2B2u_BkgGGbcTkGV9-13" value="" style="rounded=0;whiteSpace=wrap;html=1;strokeColor=#ffa500;shadow=0;opacity=30;" vertex="1" parent="a-e2B2u_BkgGGbcTkGV9-1">
          <mxGeometry x="360" y="330" width="340" height="70" as="geometry" />
        </mxCell>
        <mxCell id="a-e2B2u_BkgGGbcTkGV9-14" value="" style="sketch=0;points=[[0,0,0],[0.25,0,0],[0.5,0,0],[0.75,0,0],[1,0,0],[0,1,0],[0.25,1,0],[0.5,1,0],[0.75,1,0],[1,1,0],[0,0.25,0],[0,0.5,0],[0,0.75,0],[1,0.25,0],[1,0.5,0],[1,0.75,0]];outlineConnect=0;fontColor=#232F3E;fillColor=#ED7100;strokeColor=#ffffff;dashed=0;verticalLabelPosition=bottom;verticalAlign=top;align=center;html=1;fontSize=12;fontStyle=0;aspect=fixed;shape=mxgraph.aws4.resourceIcon;resIcon=mxgraph.aws4.ec2;" vertex="1" parent="a-e2B2u_BkgGGbcTkGV9-1">
          <mxGeometry x="390" y="200" width="34" height="34" as="geometry" />
        </mxCell>
        <mxCell id="a-e2B2u_BkgGGbcTkGV9-15" value="&lt;font style=&quot;font-size: 8px;&quot;&gt;Bastion Host&lt;/font&gt;" style="text;html=1;strokeColor=none;fillColor=none;align=center;verticalAlign=middle;whiteSpace=wrap;rounded=0;" vertex="1" parent="a-e2B2u_BkgGGbcTkGV9-1">
          <mxGeometry x="375.5" y="234" width="63" height="10" as="geometry" />
        </mxCell>
        <mxCell id="a-e2B2u_BkgGGbcTkGV9-16" value="" style="sketch=0;points=[[0,0,0],[0.25,0,0],[0.5,0,0],[0.75,0,0],[1,0,0],[0,1,0],[0.25,1,0],[0.5,1,0],[0.75,1,0],[1,1,0],[0,0.25,0],[0,0.5,0],[0,0.75,0],[1,0.25,0],[1,0.5,0],[1,0.75,0]];outlineConnect=0;fontColor=#232F3E;fillColor=#ED7100;strokeColor=#ffffff;dashed=0;verticalLabelPosition=bottom;verticalAlign=top;align=center;html=1;fontSize=12;fontStyle=0;aspect=fixed;shape=mxgraph.aws4.resourceIcon;resIcon=mxgraph.aws4.ec2;" vertex="1" parent="a-e2B2u_BkgGGbcTkGV9-1">
          <mxGeometry x="390" y="343" width="34" height="34" as="geometry" />
        </mxCell>
        <mxCell id="a-e2B2u_BkgGGbcTkGV9-17" value="&lt;font style=&quot;font-size: 8px;&quot;&gt;Ec2 Instance&lt;/font&gt;" style="text;html=1;strokeColor=none;fillColor=none;align=center;verticalAlign=middle;whiteSpace=wrap;rounded=0;" vertex="1" parent="a-e2B2u_BkgGGbcTkGV9-1">
          <mxGeometry x="375.5" y="377" width="63" height="10" as="geometry" />
        </mxCell>
        <mxCell id="a-e2B2u_BkgGGbcTkGV9-18" value="" style="sketch=0;points=[[0,0,0],[0.25,0,0],[0.5,0,0],[0.75,0,0],[1,0,0],[0,1,0],[0.25,1,0],[0.5,1,0],[0.75,1,0],[1,1,0],[0,0.25,0],[0,0.5,0],[0,0.75,0],[1,0.25,0],[1,0.5,0],[1,0.75,0]];outlineConnect=0;fontColor=#232F3E;fillColor=#ED7100;strokeColor=#ffffff;dashed=0;verticalLabelPosition=bottom;verticalAlign=top;align=center;html=1;fontSize=12;fontStyle=0;aspect=fixed;shape=mxgraph.aws4.resourceIcon;resIcon=mxgraph.aws4.ec2;" vertex="1" parent="a-e2B2u_BkgGGbcTkGV9-1">
          <mxGeometry x="634.5" y="343" width="34" height="34" as="geometry" />
        </mxCell>
        <mxCell id="a-e2B2u_BkgGGbcTkGV9-19" value="&lt;font style=&quot;font-size: 8px;&quot;&gt;Ec2 Instance&lt;/font&gt;" style="text;html=1;strokeColor=none;fillColor=none;align=center;verticalAlign=middle;whiteSpace=wrap;rounded=0;" vertex="1" parent="a-e2B2u_BkgGGbcTkGV9-1">
          <mxGeometry x="620" y="377" width="63" height="10" as="geometry" />
        </mxCell>
        <mxCell id="a-e2B2u_BkgGGbcTkGV9-21" value="&lt;div style=&quot;text-align: left;&quot;&gt;&lt;span style=&quot;font-size: 9px; color: rgb(255, 165, 0); background-color: initial;&quot;&gt;ALB Security Group&lt;/span&gt;&lt;/div&gt;&lt;font style=&quot;&quot;&gt;&lt;div style=&quot;text-align: left;&quot;&gt;&lt;span style=&quot;font-size: 9px; color: rgb(255, 165, 0); background-color: initial;&quot;&gt;(Port 80 inbound)&lt;/span&gt;&lt;/div&gt;&lt;/font&gt;" style="text;html=1;strokeColor=none;fillColor=none;align=center;verticalAlign=middle;whiteSpace=wrap;rounded=0;" vertex="1" parent="a-e2B2u_BkgGGbcTkGV9-1">
          <mxGeometry x="460" y="260" width="120" height="30" as="geometry" />
        </mxCell>
        <mxCell id="a-e2B2u_BkgGGbcTkGV9-22" value="" style="rounded=0;whiteSpace=wrap;html=1;strokeColor=#ffa500;shadow=0;opacity=30;" vertex="1" parent="a-e2B2u_BkgGGbcTkGV9-1">
          <mxGeometry x="460" y="260" width="120" height="60" as="geometry" />
        </mxCell>
        <mxCell id="a-e2B2u_BkgGGbcTkGV9-24" value="" style="sketch=0;outlineConnect=0;fontColor=#232F3E;gradientColor=none;fillColor=#8C4FFF;strokeColor=none;dashed=0;verticalLabelPosition=bottom;verticalAlign=top;align=center;html=1;fontSize=12;fontStyle=0;aspect=fixed;pointerEvents=1;shape=mxgraph.aws4.application_load_balancer;" vertex="1" parent="a-e2B2u_BkgGGbcTkGV9-1">
          <mxGeometry x="510" y="290" width="28" height="28" as="geometry" />
        </mxCell>
        <mxCell id="a-e2B2u_BkgGGbcTkGV9-27" value="" style="line;strokeWidth=1;fillColor=none;align=left;verticalAlign=middle;spacingTop=-1;spacingLeft=3;spacingRight=3;rotatable=0;labelPosition=right;points=[];portConstraint=eastwest;strokeColor=inherit;" vertex="1" parent="a-e2B2u_BkgGGbcTkGV9-1">
          <mxGeometry x="420" y="300" width="90" height="8" as="geometry" />
        </mxCell>
        <mxCell id="a-e2B2u_BkgGGbcTkGV9-30" value="Application Load&lt;br&gt;Balancer" style="text;html=1;strokeColor=none;fillColor=none;align=center;verticalAlign=middle;whiteSpace=wrap;rounded=0;" vertex="1" parent="a-e2B2u_BkgGGbcTkGV9-1">
          <mxGeometry x="310" y="272" width="110" height="58" as="geometry" />
        </mxCell>
        <mxCell id="a-e2B2u_BkgGGbcTkGV9-31" value="" style="rounded=0;whiteSpace=wrap;html=1;strokeColor=#ffa500;shadow=0;opacity=30;" vertex="1" parent="a-e2B2u_BkgGGbcTkGV9-1">
          <mxGeometry x="343" y="470" width="367" height="110" as="geometry" />
        </mxCell>
        <mxCell id="a-e2B2u_BkgGGbcTkGV9-32" value="&lt;font style=&quot;&quot;&gt;&lt;font color=&quot;#ffa500&quot; style=&quot;font-size: 9px;&quot;&gt;Bastion Host&lt;br&gt;Security Group&lt;br&gt;(Port 22 inbound)&lt;/font&gt;&lt;br&gt;&lt;/font&gt;" style="text;html=1;strokeColor=none;fillColor=none;align=center;verticalAlign=middle;whiteSpace=wrap;rounded=0;" vertex="1" parent="a-e2B2u_BkgGGbcTkGV9-1">
          <mxGeometry x="443" y="480" width="147" height="90" as="geometry" />
        </mxCell>
        <mxCell id="a-e2B2u_BkgGGbcTkGV9-33" value="" style="sketch=0;outlineConnect=0;fontColor=#232F3E;gradientColor=none;fillColor=#C925D1;strokeColor=none;dashed=0;verticalLabelPosition=bottom;verticalAlign=top;align=center;html=1;fontSize=12;fontStyle=0;aspect=fixed;pointerEvents=1;shape=mxgraph.aws4.rds_instance;" vertex="1" parent="a-e2B2u_BkgGGbcTkGV9-1">
          <mxGeometry x="372" y="490" width="48" height="48" as="geometry" />
        </mxCell>
        <mxCell id="a-e2B2u_BkgGGbcTkGV9-34" value="" style="sketch=0;outlineConnect=0;fontColor=#232F3E;gradientColor=none;fillColor=#C925D1;strokeColor=none;dashed=0;verticalLabelPosition=bottom;verticalAlign=top;align=center;html=1;fontSize=12;fontStyle=0;aspect=fixed;pointerEvents=1;shape=mxgraph.aws4.rds_instance;" vertex="1" parent="a-e2B2u_BkgGGbcTkGV9-1">
          <mxGeometry x="627.5" y="490" width="48" height="48" as="geometry" />
        </mxCell>
        <mxCell id="a-e2B2u_BkgGGbcTkGV9-35" value="Primary RDS Instance" style="text;html=1;strokeColor=none;fillColor=none;align=center;verticalAlign=middle;whiteSpace=wrap;rounded=0;" vertex="1" parent="a-e2B2u_BkgGGbcTkGV9-1">
          <mxGeometry x="356" y="540" width="80" height="30" as="geometry" />
        </mxCell>
        <mxCell id="a-e2B2u_BkgGGbcTkGV9-36" value="Primary RDS Instance" style="text;html=1;strokeColor=none;fillColor=none;align=center;verticalAlign=middle;whiteSpace=wrap;rounded=0;" vertex="1" parent="a-e2B2u_BkgGGbcTkGV9-1">
          <mxGeometry x="611.5" y="540" width="80" height="30" as="geometry" />
        </mxCell>
        <mxCell id="a-e2B2u_BkgGGbcTkGV9-20" value="&lt;font style=&quot;&quot;&gt;&lt;font color=&quot;#ffa500&quot; style=&quot;font-size: 9px;&quot;&gt;Bastion Host&lt;br&gt;Security Group&lt;br&gt;(Port 22 inbound)&lt;/font&gt;&lt;br&gt;&lt;/font&gt;" style="text;html=1;strokeColor=none;fillColor=none;align=center;verticalAlign=middle;whiteSpace=wrap;rounded=0;" vertex="1" parent="1">
          <mxGeometry x="830" y="350" width="120" height="50" as="geometry" />
        </mxCell>
      </root>
    </mxGraphModel>
  </diagram>
</mxfile>
